<?xml version="1.0" encoding="UTF-8"?>
<svg width="256" height="256" viewBox="0 0 256 256" xmlns="http://www.w3.org/2000/svg">
  <defs>
    <linearGradient id="bgGradient" x1="0%" y1="0%" x2="100%" y2="100%">
      <stop offset="0%" style="stop-color:#E95420;stop-opacity:1" />
      <stop offset="100%" style="stop-color:#C7402D;stop-opacity:1" />
    </linearGradient>
    <linearGradient id="gearGradient" x1="0%" y1="0%" x2="100%" y2="100%">
      <stop offset="0%" style="stop-color:#FFFFFF;stop-opacity:1" />
      <stop offset="100%" style="stop-color:#F0F0F0;stop-opacity:1" />
    </linearGradient>
  </defs>
  
  <!-- Background circle -->
  <circle cx="128" cy="128" r="120" fill="url(#bgGradient)"/>
  
  <!-- Outer gear shape -->
  <g transform="translate(128,128)">
    <path d="M0,-80 L12,-80 L18,-68 L30,-62 L40,-70 L52,-58 L44,-46 L48,-34 L62,-28 L62,-14 L48,-8 L48,8 L62,14 L62,28 L48,34 L44,46 L52,58 L40,70 L30,62 L18,68 L12,80 L0,80 L-12,80 L-18,68 L-30,62 L-40,70 L-52,58 L-44,46 L-48,34 L-62,28 L-62,14 L-48,8 L-48,-8 L-62,-14 L-62,-28 L-48,-34 L-44,-46 L-52,-58 L-40,-70 L-30,-62 L-18,-68 L-12,-80 Z"
          fill="url(#gearGradient)"
          stroke="#FFFFFF"
          stroke-width="2"/>
    
    <!-- Inner circle cutout (gear center) -->
    <circle cx="0" cy="0" r="30" fill="url(#bgGradient)"/>
    
    <!-- Systemd-style center dot -->
    <circle cx="0" cy="0" r="12" fill="#FFFFFF"/>
  </g>
  
  <!-- Service state indicator - active (green dot) -->
  <circle cx="200" cy="56" r="24" fill="#38B44A" stroke="#FFFFFF" stroke-width="4"/>
  
  <!-- Small play triangle inside the green dot -->
  <polygon points="192,48 212,56 192,64" fill="#FFFFFF"/>
</svg>
